<svg width="10" height="8" viewBox="0 0 10 8" fill="none" xmlns="http://www.w3.org/2000/svg">
    <path fill-rule="evenodd" clip-rule="evenodd" d="M7.76425 2.31537C8.17434 1.91375 8.56621 1.46938 8.66562 0.871577C8.78983 0.712084 8.81825 0.539239 8.84277 0.390125C8.84727 0.362761 8.85164 0.336197 8.85644 0.31066C8.85056 0.237406 8.81418 0.151859 8.76553 0.0967914C8.72915 0.0112405 8.65589 0.0171311 8.57037 0.0534968C7.89187 0.417693 7.2802 0.879728 6.74772 1.40913C6.52117 1.61913 6.29154 1.83677 6.06191 2.0544C5.83253 2.27179 5.60316 2.48919 5.37685 2.69897C5.26172 2.81916 5.14479 2.93514 5.0272 3.04956C4.48676 2.52339 3.94171 1.96636 3.43557 1.37494C3.38699 1.32 3.36882 1.27727 3.35067 1.23461L3.35054 1.23432C0.523114 -1.2798 1.01591 0.713156 1.96897 2.02364C2.15129 2.27443 2.33364 2.52518 2.5588 2.75774C2.68132 2.88099 2.80221 3.00358 2.92238 3.12543C3.26043 3.46823 3.59275 3.80522 3.93957 4.13481C3.41962 4.66815 2.86958 5.2054 2.28606 5.70478C2.23112 5.75335 2.18839 5.77153 2.14573 5.78968L2.14543 5.78981C-0.368681 8.61724 1.62428 8.12444 2.93476 7.17138C3.18555 6.98906 3.4363 6.8067 3.66886 6.58155C3.79211 6.45902 3.91471 6.33813 4.03656 6.21796C4.38628 5.87309 4.72995 5.53418 5.06588 5.17976C5.65365 5.73104 6.238 6.29083 6.82235 6.85061L6.82498 6.85313C7.2266 7.26322 7.67097 7.65509 8.26877 7.7545C8.42827 7.87871 8.60111 7.90713 8.75023 7.93165C8.77759 7.93615 8.80415 7.94052 8.82969 7.94532C9.67548 7.87736 7.94916 6.05581 7.73122 5.8366C7.52121 5.61005 7.30358 5.38042 7.08595 5.15079C6.86856 4.92141 6.65116 4.69204 6.44138 4.46573C6.31425 4.34394 6.19182 4.22015 6.07098 4.09569C6.62867 3.50077 7.19519 2.9094 7.7617 2.31803L7.76425 2.31537Z" fill="#2F326A"></path>
</svg>