<?xml version="1.0" encoding="UTF-8"?><svg id="a" xmlns="http://www.w3.org/2000/svg" width="1450" height="702" viewBox="0 0 1450 702"><rect width="1450" height="296.19" style="fill:#fff;"/><path d="m-27.99,495.11c-.98-.63-2.06-1.19-3.19-1.69-14.17-6.85-14.65-11.61-5.35-21.62,2.81-3.55-17.87-122.18-22.71-130.84-2.49-5.01-5.75-9.81-9.01-14.61-3.26-4.8-6.52-9.6-9.01-14.61-2.11-4.47,5.49-19.77,13.65-36.2,11.38-22.91,23.85-48.04,12.66-49.1-4.8-.46-8.17-2.35-11.67-5.6-.47-.52-.94-1.03-1.4-1.54-4.85-5.29-9.37-10.23-10.78-17.03-.21-2.04-1.99-4.01-3.77-5.97h0c-3.57-3.93-5.63-8.62-6.9-13.35-1.2-4.04-19.9-79.36-9.05-81.92,10.56-2.14,21.81-2.56,33.15-2.98,2.84-.11,5.69-.21,8.54-.35,14.21-.67,29.2-1.37,43.48-1.36,6.34-.3,4.83-.09,2.48.23-2.91.4-7.11.98.8.98,28.55.02,77.1-2.26,105.45-4.28l28.41-1.34c8.29-.18,25.36-7.42,51.22-21.71,141.49-9.15,217.11-13.34,226.86-12.57,11.19.84,23.1.96,33.87-2.28,2.3-.79,4.67-.9,7.82-1.05,12.86-.9,25.54-2.17,38.2-3.44,16.79-1.68,33.55-3.36,50.65-4.16h0c43.41-2.04,86.82-4.09,129.96-8.85,13.35-1.31,26.77-1.94,39.4-2.54,5.49-.6,10.78-1.19,16.08-1.78,5.29-.59,10.59-1.18,16.08-1.78,2.37-.11,4.92-.4,7.46-.69s5.1-.58,7.46-.69c6.31-.3,12.63-.59,18.87-1.57,8.33-1.27,43.92,1.75,84.11,5.15,54.04,4.58,116.4,9.86,131.97,6.39,13.93-3.39,27.99-5.57,42.05-7.75,7.02-1.09,14.05-2.18,21.06-3.42,8.55-1.77,17.36-.82,26.46,2.86l4.94,1.82c4.15,1.85,8.95,2.31,12.84,1.45,5.12-.88,10.1-1.61,14.98-2.32,5.5-.8,10.89-1.59,16.25-2.57,31.95-5.6,63.97-10.53,96.77-15.49,7.43-1.03,14.84-2.24,22.26-3.44,7.41-1.2,14.83-2.41,22.26-3.44,4.88-.87,9.74-1.91,14.6-2.95,10.66-2.28,21.33-4.56,32.17-5.07,9.47-.45,109.5,39.95,117.02,43.7,1.25.62,2.3,1.26,3.36,1.89,1.06.63,2.11,1.27,3.37,1.89,12.87,9.65,27.18,17.86,42.28,26.03,9.24,5.03,17.02,11.5,24.09,18.69,2.64,2.61,2.26,6.73.1,8.88-2.85,2.11-2.08,41.89.52,83.1h69.52c2.23,0,4.04,1.79,4.04,4v509.81c0,2.21-1.81,4-4.04,4H-23.95c-2.23,0-4.04-1.79-4.04-4v-202.89Z" style="fill:#f7f8fa; fill-rule:evenodd;"/></svg>