<svg width="11" height="9" viewBox="0 0 11 9" fill="none" xmlns="http://www.w3.org/2000/svg">
    <path d="M10.4309 1.90025C10.3201 2.54781 9.88367 3.02916 9.4269 3.46421C8.47234 4.43329 7.51773 5.40238 6.59709 6.38475C6.03793 6.97156 5.45854 7.51201 4.86541 8.08544C4.60638 8.32934 4.3271 8.52688 4.04776 8.72437C3.76847 8.92191 3.46237 8.99378 3.14971 8.98629C2.93234 8.93935 2.71493 8.89246 2.52497 8.77954C2.36891 8.67996 2.24681 8.59365 2.10446 8.46103C1.60952 8.03651 0.918759 6.86736 0.737053 6.25868C0.642922 5.91462 1.0312 5.64468 1.29623 5.67187C1.44571 5.69215 1.5815 5.74542 1.7036 5.83172C2.02938 5.99791 2.63256 6.90235 2.83568 7.17397C2.8762 7.26665 3.0596 7.30021 3.1686 7.22781C3.21623 7.20811 3.2639 7.18845 3.32523 7.13571C4.10891 6.48345 4.83836 5.77155 5.52024 5.07935C5.92934 4.66404 6.35869 4.29505 6.76779 3.87974C7.27218 3.425 7.79028 2.93726 8.29468 2.48255C8.88777 1.90908 9.56905 1.4086 10.3248 1.01409C10.42 0.974696 10.5016 0.968315 10.5421 1.06099C10.5963 1.12064 10.6368 1.2133 10.6434 1.29265C10.6089 1.47105 10.5946 1.69578 10.4309 1.90025Z" fill="#4B4B60"></path>
</svg>