<svg width="117" height="15" viewBox="0 0 117 15" fill="none" preserveAspectRatio="none" xmlns="http://www.w3.org/2000/svg">
<path d="M0.00642641 10.6288C0.576586 10.2968 1.14675 10.0201 1.93071 10.1308C2.00199 10.1308 2.00199 10.1861 2.07326 10.2414C2.07326 10.2968 2.07326 10.3521 2.07326 10.3521C1.78818 10.4628 1.5031 10.5734 1.28929 10.7394C1.21802 10.7948 1.21802 10.8501 1.14675 10.9608C1.07548 11.1267 1.28929 11.4587 1.57437 11.4587C1.64564 11.4587 1.71691 11.4587 1.71691 11.4587C2.57214 11.2374 3.42738 11.2927 4.28262 11.4034C5.20913 11.4587 6.06437 11.2927 6.91961 11.0161C7.06215 11.0161 7.13342 10.7948 7.13342 10.6841C7.06215 10.4628 6.91961 10.2968 6.84834 10.0754C6.7058 9.79878 6.42072 9.68811 6.06437 9.63278C5.70802 9.57745 5.49421 9.68811 5.2804 9.85411C5.20913 9.90944 5.06659 9.96478 4.99532 9.96478C4.63897 9.79878 4.42516 9.63278 3.92627 9.57745C3.28484 9.57745 2.64341 9.57745 2.07326 9.63278C1.71691 9.68811 1.5031 9.52212 1.64564 9.24546C1.78818 8.9688 1.93071 8.74747 2.28706 8.69214C2.64341 8.6368 3.07103 8.52614 3.42738 8.52614C3.78373 8.52614 4.14008 8.47081 4.42516 8.41548C4.78151 8.30481 5.20913 8.30481 5.56548 8.30481C5.92183 8.30481 6.27818 8.24948 6.56326 8.19415C8.05993 7.86215 9.5566 7.75149 11.1245 7.80682C11.6234 7.80682 12.1936 7.80682 12.6212 7.69616C13.8328 7.4195 15.1157 7.36416 16.3272 7.2535C17.6814 7.14284 19.0355 7.14284 20.3896 6.97684C21.8863 6.81084 23.3117 6.75551 24.8084 6.64485C26.305 6.53418 27.873 6.47885 29.3696 6.20219C29.6547 6.14686 29.9398 6.20219 30.2249 6.14686C31.7216 6.03619 33.1469 6.03619 34.6436 5.92553C36.2828 5.75953 37.922 5.7042 39.5612 5.59354C41.1292 5.48287 42.6971 5.37221 44.3363 5.20621C45.7617 5.04021 47.2584 4.92955 48.7551 4.81889C50.0379 4.76355 51.3921 4.65289 52.6749 4.43156C52.8175 4.43156 53.0313 4.37623 53.1738 4.37623C54.4567 4.43156 55.6683 4.09957 56.8798 4.04424C57.9489 3.9889 59.0179 3.82291 60.087 3.71224C60.4433 3.65691 60.7284 3.60158 61.0848 3.60158C61.7975 3.54625 62.5814 3.49091 63.2941 3.32492C64.2919 3.10359 65.2897 2.99292 66.3587 2.99292C66.5726 2.99292 66.8576 2.99293 67.0714 2.93759C68.1405 2.71626 69.2095 2.66093 70.2786 2.49494C71.0626 2.32894 71.8465 2.27361 72.6305 2.27361C72.9156 2.27361 73.2007 2.27361 73.4857 2.21828C74.6973 1.94161 75.9089 1.88628 77.1918 1.72029C79.2586 1.49896 81.3967 1.38829 83.4635 1.00097C84.4613 0.834972 85.4591 0.77964 86.5281 0.724308C88.6662 0.558311 90.8043 0.392314 93.0137 0.226317C93.3701 0.226317 93.7264 0.170986 94.0115 0.115654C94.6529 0.00498962 95.3656 -0.0503426 96.0783 0.0603218C96.4347 0.115654 96.791 0.115654 97.0761 0.0603218C97.5037 0.00498962 98.0026 0.00498962 98.4302 0.0603218C98.7866 0.115654 99.2142 0.0603218 99.6418 0.0603218C100.497 0.00498962 101.352 0.00498962 102.208 0.0603218C103.419 0.170986 104.702 0.281651 105.914 0.336983C107.482 0.392315 108.978 0.668975 110.475 0.890304C111.401 1.00097 112.399 1.16696 113.326 1.33296C114.181 1.44362 114.965 1.66495 115.749 1.94161C116.105 2.05228 116.248 2.21828 116.462 2.49494C117.032 3.26959 117.103 4.09957 116.889 4.92955C116.818 5.42754 116.462 5.81486 115.678 5.92553C115.25 5.98086 114.894 6.14686 114.965 6.53418C114.965 6.75551 114.822 6.81084 114.537 6.86618C114.038 6.97684 114.038 6.97684 114.11 7.4195C114.181 7.80682 113.825 8.13881 113.326 8.08348C112.613 8.08348 111.829 8.02815 111.116 8.19415C110.118 8.19415 109.049 8.13881 108.052 8.13881C107.624 8.13881 107.125 8.08348 106.698 8.02815C105.201 7.97282 103.704 8.02815 102.279 7.86215C101.994 7.86215 101.709 7.86215 101.424 7.86215C101.138 7.86215 100.925 8.02815 100.925 8.13881C100.925 8.30481 101.067 8.36014 101.281 8.41548C101.495 8.47081 101.709 8.52614 101.922 8.6368C101.994 8.6368 101.994 8.74747 102.065 8.85813C101.709 8.85813 101.352 8.85813 100.996 8.85813C99.6418 8.85813 98.2877 8.8028 96.9336 8.91346C94.8667 9.07946 92.8712 9.02413 90.8043 9.19012C89.7353 9.24546 88.6662 9.30079 87.5972 9.46679C86.0293 9.63278 84.39 9.63278 82.8221 9.90944C82.6796 9.96478 82.4658 9.90944 82.3232 9.96478C80.6127 10.0201 78.9023 10.2414 77.2631 10.4628C77.4056 10.2968 77.4769 10.1308 77.6907 10.0754C77.9757 10.0201 78.2608 9.96478 78.5459 9.96478C79.9 9.90944 81.2542 9.63278 82.6083 9.46679C83.8912 9.35612 85.2453 9.35612 86.4569 8.9688C86.9558 8.85813 87.5972 8.91346 88.1674 8.85813C88.2386 8.85813 88.3099 8.74747 88.3099 8.69214C88.3099 8.6368 88.1674 8.52614 88.0961 8.52614C88.0248 8.47081 87.8823 8.47081 87.7397 8.47081C87.4547 8.47081 87.1696 8.47081 86.8845 8.47081C85.4591 8.6368 84.0337 8.6368 82.6083 8.85813C81.0404 9.07946 79.4724 9.24546 77.8332 9.24546C77.6907 9.24546 77.4769 9.30079 77.3343 9.30079C76.7642 9.46679 76.194 9.41145 75.6951 9.13479C75.5526 9.02413 75.2675 9.02413 75.0537 9.02413C74.6261 9.02413 74.1272 9.02413 73.6996 9.13479C72.2742 9.41145 70.7775 9.46679 69.2808 9.63278C67.8554 9.79878 66.5013 10.0201 65.0759 10.1308C63.2941 10.2968 61.5837 10.5181 59.8019 10.6841C57.5213 10.9608 55.3119 11.1821 53.0313 11.4587C51.9622 11.5694 50.8932 11.6801 49.8241 11.7354C47.9711 11.8461 46.1181 12.1227 44.1938 12.1227C43.7662 12.1227 43.2673 12.1781 42.8397 12.2334C42.412 12.3441 41.9132 12.3441 41.4855 12.3441C39.9889 12.4547 38.4209 12.5654 36.9243 12.6761C35.285 12.842 33.6458 12.9527 32.0066 13.008C30.8663 13.008 29.726 13.0634 28.5857 13.2294C28.0868 13.2847 27.5879 13.2847 27.089 13.2847C26.3763 13.34 25.7349 13.2847 25.0222 13.3954C23.5255 13.6167 22.1001 13.672 20.6034 13.6167C19.8907 13.6167 19.2493 13.6167 18.5366 13.7827C17.4676 14.004 16.3985 14.004 15.3295 13.7827C14.6168 13.6167 13.9041 13.6167 13.1201 13.6167C12.6212 13.6167 12.1936 13.7274 11.9085 14.004C11.4809 14.4467 10.9107 14.3913 10.3406 14.336C10.198 14.336 9.98422 14.17 9.98422 14.0594C9.98422 13.9487 10.0555 13.7827 10.198 13.7274C10.4831 13.4507 10.6969 13.34 10.9107 13.34C11.9085 13.2294 12.9776 13.174 13.9753 13.0634C14.8306 13.008 15.6858 12.9527 16.5411 12.8974C17.5388 12.7867 18.5366 12.6761 19.5344 12.8974C19.8907 13.008 20.2471 12.9527 20.5322 12.7867C20.8885 12.5654 21.3874 12.5101 21.815 12.4547C22.7415 12.3994 23.7393 12.1781 24.6658 12.4547C24.8084 12.5101 25.0222 12.4547 25.1647 12.3441C25.3785 12.2334 25.6636 12.1227 25.9487 12.1227C26.5901 12.0674 27.2315 12.0121 27.8017 12.0121C27.9442 12.0121 28.1581 12.0121 28.3006 12.0121C29.2984 12.1227 29.726 12.0674 30.5812 11.8461C31.0801 11.7354 31.579 11.6801 32.0779 11.6247C34.2873 11.5141 36.4966 11.3481 38.706 11.2374C39.4187 11.2374 40.0601 11.1267 40.7728 11.0714C43.0535 10.8501 45.2628 10.6288 47.5435 10.4074C47.9711 10.3521 48.47 10.3521 48.8976 10.3521C50.6794 10.2414 52.5324 10.0201 54.3141 9.85411C55.8821 9.74345 57.45 9.52212 59.0892 9.41145C60.1583 9.35612 61.2273 9.24546 62.2964 9.02413C63.0803 8.85813 63.8643 8.74747 64.6483 8.74747C65.646 8.69214 66.7151 8.58147 67.7129 8.41548C70.3499 8.02815 72.9869 7.69616 75.6238 7.4195C76.978 7.30883 78.3321 7.14284 79.6862 6.92151C80.3989 6.81084 81.1829 6.86617 81.8956 6.64485C81.9669 6.64485 81.9669 6.47885 81.9669 6.42352C81.9669 6.42352 81.8956 6.36819 81.8243 6.31285C81.7531 6.31285 81.7531 6.25752 81.6818 6.25752C80.9691 6.25752 80.3277 6.20219 79.615 6.31285C78.5459 6.47885 77.4769 6.64485 76.4078 6.75551C76.2653 6.75551 76.194 6.75551 76.0515 6.81084C74.6261 7.03217 73.2719 7.19817 71.8465 7.2535C70.9913 7.30883 70.1361 7.4195 69.2808 7.53016C68.8532 7.58549 68.3543 7.64083 67.9267 7.58549C67.7841 7.58549 67.5703 7.53016 67.4278 7.64082C66.8576 7.91749 66.2162 7.80682 65.646 7.80682C65.0759 7.80682 64.4345 7.86215 63.793 8.08348C62.9378 8.41547 62.0113 8.47081 61.156 8.52614C59.0179 8.69214 56.8798 9.02413 54.7417 9.24546C53.3876 9.35612 52.0335 9.52212 50.6794 9.63278C50.0379 9.68811 49.4678 9.74345 48.8263 9.79878C48.1136 9.85411 47.3297 9.96478 46.617 9.96478C45.4054 9.96478 44.2651 10.0754 43.0535 10.1861C40.9154 10.4074 38.7773 10.5734 36.5679 10.6841C36.1403 10.6841 35.6414 10.7394 35.2138 10.7948C34.9287 10.7948 34.6436 10.8501 34.3585 10.9054C33.7884 10.9054 33.2182 10.6841 32.7193 10.9608C32.0779 11.0161 31.4365 11.0714 30.8663 11.0714C30.2962 11.0714 29.726 11.1821 29.1558 11.2374C28.0868 11.2374 27.0177 11.4587 25.9487 11.2927C25.8061 11.2927 25.5923 11.2927 25.4498 11.3481C24.0244 11.6801 22.5277 11.7354 21.0311 11.7354C20.6034 11.7354 20.1046 11.7354 19.6769 11.7354C19.3206 11.7354 17.8239 11.9014 17.3963 11.9567C16.6836 12.0674 15.9709 12.1227 15.0444 12.0674C15.6858 11.7907 16.1134 11.6801 16.6123 11.6801C16.7549 11.6801 16.9687 11.6801 17.1112 11.6247C17.1825 11.6247 17.2538 11.4587 17.1825 11.4034C16.8974 11.0161 16.5411 10.7948 15.9709 10.8501C15.4007 10.9054 14.8306 10.9054 14.3317 11.2374C13.619 11.3481 12.9063 11.4587 12.1936 11.5694C11.766 11.6247 11.2671 11.5694 10.8395 11.4034C10.4831 11.2374 10.0555 11.2374 9.69914 11.2927C8.8439 11.4034 7.98866 11.5141 7.13342 11.6247C6.13564 11.6801 5.13786 11.7907 4.14008 11.9014C4.06881 11.9014 3.99754 11.9014 3.99754 11.9014C2.71468 11.7354 1.36056 11.9014 0.0776964 11.8461C-0.0648435 11.7354 0.0064264 11.6801 0.148966 11.6247C0.576586 11.1268 0.576586 11.0714 0.00642641 10.6288ZM14.0466 8.91346V8.9688C14.0466 9.02413 13.9753 8.9688 14.0466 8.91346ZM8.77263 10.6841C8.77263 10.7394 8.8439 10.7948 8.8439 10.7948C9.27152 10.8501 9.62787 10.7948 9.91295 10.5734C10.198 10.3521 10.4831 10.1308 10.6969 9.90944C10.982 9.57745 11.5522 9.68811 11.9085 9.52212C11.9798 9.46679 12.051 9.35612 12.051 9.30079C12.051 9.24546 11.9798 9.13479 11.9085 9.07946C11.8372 9.02413 11.6947 9.02413 11.6234 9.02413C11.1245 9.02413 10.6256 9.19013 10.2693 9.52212C9.84168 9.90944 9.41406 10.2968 8.8439 10.6288C8.77263 10.5734 8.77263 10.6288 8.77263 10.6841ZM8.27374 8.36014C8.05993 8.36014 7.63231 8.36014 7.13342 8.41548C6.91961 8.41548 6.7058 8.52614 6.49199 8.6368C6.42072 8.6368 6.34945 8.74747 6.42072 8.85813C6.42072 8.91346 6.56326 9.02413 6.63453 9.02413C7.48977 9.19012 8.34501 9.13479 9.12898 8.9688C9.34279 8.91346 9.5566 8.8028 9.69914 8.74747C9.84168 8.69214 9.84168 8.58147 9.77041 8.52614C9.77041 8.47081 9.69914 8.47081 9.62787 8.41548C9.27152 8.24948 8.91517 8.36014 8.27374 8.36014ZM17.1112 8.52614C16.8261 8.52614 16.5411 8.52614 16.256 8.58147C16.1134 8.58147 16.0422 8.6368 15.8996 8.6368C15.6858 8.69214 15.472 8.85813 15.6145 8.91346C15.7571 8.9688 15.8996 9.07946 16.0422 9.07946C16.6123 9.02413 17.1112 8.9688 17.6814 8.85813C17.6814 8.85813 17.7526 8.8028 17.7526 8.74747C17.6814 8.69214 17.6101 8.58147 17.5388 8.58147C17.4676 8.52614 17.2538 8.52614 17.1112 8.52614ZM35.1425 7.36416C34.7862 7.4195 34.5011 7.4195 34.1447 7.47483C34.1447 7.47483 34.0735 7.53016 34.0735 7.58549C34.0735 7.64083 34.0735 7.69616 34.1447 7.69616C34.3585 7.91749 34.7149 7.97282 35.0712 8.02815C35.2851 8.02815 35.5701 7.86215 35.6414 7.64082C35.6414 7.58549 35.5701 7.47483 35.4989 7.4195C35.3563 7.36416 35.2138 7.4195 35.1425 7.36416ZM21.2449 8.69214C20.6034 8.41548 20.1758 8.41547 19.7482 8.47081C19.6769 8.47081 19.5344 8.52614 19.4631 8.58147C19.3919 8.6368 19.3206 8.69214 19.3206 8.8028C19.2493 8.91346 19.4631 9.07946 19.6057 9.07946C20.0333 8.91346 20.4609 8.8028 21.2449 8.69214ZM28.4431 7.69616C28.3006 7.75149 28.1581 7.69616 28.0868 7.75149C27.8017 7.91749 27.7304 8.19415 27.873 8.47081C27.873 8.52614 28.0868 8.58147 28.1581 8.58147C28.5857 8.52614 28.8708 8.30481 28.7282 7.97282C28.6569 7.86215 28.5144 7.75149 28.4431 7.69616ZM34.0735 9.57745C34.0735 9.63278 34.1447 9.68811 34.1447 9.68811C34.5724 9.68811 35 9.74345 35.4989 9.74345C35.5701 9.74345 35.6414 9.74345 35.6414 9.68811C35.7127 9.68811 35.7127 9.63278 35.7127 9.63278C35.6414 9.57745 35.5701 9.46679 35.5701 9.46679C35.0712 9.52212 34.5723 9.57745 34.0735 9.57745ZM36.9243 7.47483C36.9955 7.58549 37.0668 7.75149 37.2093 7.80682C37.2806 7.86215 37.4231 7.91749 37.4944 7.86215C37.5657 7.86215 37.637 7.75149 37.7082 7.69616C37.7795 7.53016 37.7795 7.36416 37.5657 7.2535C37.4944 7.19817 37.3519 7.19817 37.2806 7.19817C37.1381 7.30883 37.0668 7.4195 36.9243 7.47483ZM23.9531 8.85813C23.9531 8.85813 24.1669 8.9688 24.3095 8.9688C24.6658 8.91346 24.8084 8.69214 24.7371 8.41548C24.7371 8.36014 24.5233 8.30481 24.5233 8.30481C24.1669 8.30481 24.0244 8.47081 23.9531 8.85813ZM27.3741 10.5181C27.3028 10.5181 27.1603 10.5181 27.089 10.5734C27.0177 10.5734 27.0177 10.6288 26.9465 10.6288C26.8752 10.7394 26.9465 10.7948 27.089 10.7948C27.1603 10.7948 27.3028 10.7948 27.3741 10.7948C27.4454 10.7948 27.5879 10.7394 27.6592 10.6841C27.8017 10.6841 27.5879 10.5181 27.3741 10.5181ZM36.4966 10.0201C36.4254 10.0201 36.2828 10.0201 36.2116 10.0754C36.1403 10.0754 36.069 10.1308 36.069 10.1308C36.069 10.2414 36.1403 10.2414 36.2828 10.2414C36.3541 10.2414 36.4966 10.2414 36.5679 10.2414C36.6392 10.2414 36.7817 10.1861 36.853 10.1308C36.9243 10.1308 36.7104 10.0201 36.4966 10.0201ZM16.0422 10.1861C16.1134 10.1308 16.256 10.0754 16.256 10.0201C16.256 9.90944 16.1134 9.90944 15.9709 9.96478C15.8996 9.96478 15.8996 10.0201 15.8996 10.0754C15.8284 10.1861 15.8996 10.1861 16.0422 10.1861ZM23.9531 10.8501C23.8819 10.9054 23.7393 10.9054 23.6681 10.9608C23.5968 11.0161 23.7393 11.1821 23.9531 11.2374C24.0957 11.2374 24.3095 11.1821 24.3095 11.0161C24.3095 10.9054 24.1669 10.8501 23.9531 10.8501ZM50.9644 6.64485C51.0357 6.70018 51.0357 6.81084 51.107 6.81084C51.2495 6.86617 51.3208 6.81084 51.3208 6.70018C51.3208 6.64485 51.2495 6.58951 51.1783 6.47885C51.107 6.58951 51.0357 6.58951 50.9644 6.64485ZM64.5057 4.92955C64.577 4.98488 64.7195 5.04021 64.7908 5.04021C64.8621 5.04021 64.9333 4.98488 65.0046 4.92955C64.9333 4.87422 64.8621 4.81889 64.7908 4.76355C64.7195 4.76355 64.577 4.81889 64.5057 4.81889C64.5057 4.81889 64.5057 4.87422 64.5057 4.92955ZM31.6503 7.75149C31.5077 7.80682 31.4365 7.86215 31.5077 7.97282C31.579 8.08348 31.6503 8.08348 31.7928 8.02815C31.8641 8.02815 31.8641 7.97282 31.8641 7.91749C31.8641 7.80682 31.7928 7.75149 31.6503 7.75149ZM29.726 8.13881L29.7973 8.19415L29.8685 8.13881H29.726ZM42.0557 7.30883C42.0557 7.36416 42.0557 7.36416 41.9844 7.4195C42.0557 7.4195 42.0557 7.47483 42.0557 7.47483L42.127 7.4195C42.127 7.30883 42.0557 7.30883 42.0557 7.30883ZM26.4476 9.35612C26.5188 9.46679 26.5901 9.46679 26.6614 9.35612L26.5901 9.30079C26.5188 9.30079 26.5188 9.35612 26.4476 9.35612ZM72.7018 3.93357L72.6305 3.9889H72.773L72.7018 3.93357ZM8.05993 9.41145L7.98866 9.46679C7.98866 9.46679 8.05993 9.52212 8.05993 9.57745L8.1312 9.52212C8.1312 9.46679 8.05993 9.46679 8.05993 9.41145ZM53.4589 6.09153H53.5302L53.4589 6.03619V6.09153ZM55.2406 6.14686L55.1694 6.20219C55.1694 6.20219 55.1694 6.25752 55.2406 6.31285L55.3119 6.25752C55.3119 6.20219 55.3119 6.20219 55.2406 6.14686ZM24.5233 9.52212H24.452L24.5233 9.63278V9.52212Z" fill="#BA9CFF"/>
<path d="M9.84168 12.1781C10.8395 12.2334 11.766 12.1227 12.6212 12.0674C12.835 12.0674 13.0488 12.0121 13.2626 12.1781V12.2887C12.2649 12.3441 11.2671 12.6207 10.2693 12.6207C9.69914 12.6207 9.12898 12.7314 8.55882 12.7314C8.27374 12.7314 8.05993 12.676 7.98866 12.5101C7.91739 12.3441 8.20247 12.1781 8.55882 12.1227C9.05771 12.1781 9.48533 12.1781 9.84168 12.1781Z" fill="#BA9CFF"/>
<path d="M67.9267 11.0714C67.6416 11.1267 67.4278 11.2374 67.1427 11.2927C65.7886 11.4587 64.4345 11.6247 63.0803 11.8461C63.0091 11.8461 62.9378 11.7907 62.7952 11.7354C62.8665 11.6801 62.9378 11.6247 63.0091 11.5694C63.0803 11.5694 63.0803 11.5141 63.1516 11.5141C64.5057 11.4587 65.8599 11.1267 67.214 11.1821C67.4991 11.1267 67.7129 11.0714 67.9267 11.0714Z" fill="#BA9CFF"/>
<path d="M77.1205 10.1861C75.7664 10.2968 74.341 10.4628 72.9869 10.5734C72.8443 10.5734 72.773 10.5181 72.773 10.4074C72.773 10.3521 72.8443 10.3521 72.8443 10.2968C72.9869 10.2414 73.1294 10.1861 73.3432 10.1861C74.1984 10.0754 75.1249 9.96478 75.9802 9.90944C76.4791 9.90944 76.8354 10.0201 77.1205 10.1861Z" fill="#BA9CFF"/>
<path d="M6.77707 14.4467C6.42072 14.4467 5.9931 14.4467 5.63675 14.4467C5.49421 14.4467 5.42294 14.336 5.49421 14.2807C5.49421 14.2254 5.56548 14.2254 5.63675 14.2254C5.9931 14.0594 6.34945 14.17 6.77707 14.4467Z" fill="#BA9CFF"/>
<path d="M70.5637 10.6288C70.7775 10.6288 70.8488 10.6841 70.7775 10.7948C70.7775 10.8501 70.7062 10.8501 70.7062 10.9054C70.4924 10.9608 70.2786 10.9608 70.0648 11.0161C69.9222 11.0161 69.851 10.9608 69.9222 10.8501C69.9222 10.7948 69.9935 10.7948 69.9935 10.7394C70.2073 10.6841 70.4211 10.6841 70.5637 10.6288Z" fill="#BA9CFF"/>
<path d="M38.0646 13.8934C38.5635 13.7274 38.9911 13.8934 39.4187 13.8934C38.9911 13.8934 38.5635 14.0594 38.0646 13.8934Z" fill="#BA9CFF"/>
<path d="M5.42294 12.7867C5.70802 12.7867 5.9931 12.7314 6.27818 12.7314C6.34945 12.6761 6.42072 12.7314 6.42072 12.7314C6.34945 12.7867 6.27818 12.8974 6.20691 12.8974C5.9931 12.8974 5.70802 12.9527 5.42294 12.7867Z" fill="#BA9CFF"/>
<path d="M52.4611 12.842C52.6036 12.5654 52.8887 12.5654 53.1025 12.5654C53.1738 12.5654 53.1738 12.6207 53.2451 12.6207C53.2451 12.676 53.1738 12.7867 53.1025 12.7867C52.8887 12.842 52.6749 12.842 52.4611 12.842Z" fill="#BA9CFF"/>
<path d="M36.9955 13.0634C37.0668 13.0634 37.0668 13.0634 37.1381 13.0634C37.0668 13.0634 36.9955 13.1187 36.9955 13.0634C36.9243 13.1187 36.9243 13.1187 36.853 13.0634C36.853 13.0634 36.9243 13.0634 36.9955 13.0634Z" fill="#BA9CFF"/>
<path d="M42.6259 13.6167C42.5546 13.6167 42.412 13.672 42.3408 13.672C42.1982 13.672 42.127 13.672 42.1982 13.5614C42.1982 13.5614 42.2695 13.5614 42.3408 13.506C42.412 13.506 42.4833 13.506 42.4833 13.506C42.5546 13.5614 42.5546 13.5614 42.6259 13.6167Z" fill="#BA9CFF"/>
<path d="M45.6192 13.3954C45.6192 13.34 45.6192 13.34 45.6192 13.34C45.6905 13.34 45.833 13.34 45.9043 13.34C45.9755 13.34 45.9755 13.3954 46.0468 13.3954C45.9755 13.3954 45.9755 13.4507 45.9043 13.4507C45.833 13.3954 45.6905 13.3954 45.6192 13.3954Z" fill="#BA9CFF"/>
<path d="M49.6103 13.0634C49.6816 13.0634 49.6816 13.0634 49.7529 13.1187C49.6816 13.1187 49.6816 13.1187 49.6103 13.1187C49.4678 13.1187 49.3965 13.1187 49.4678 13.0634C49.539 13.008 49.6103 13.0634 49.6103 13.0634Z" fill="#BA9CFF"/>
<path d="M50.3943 12.0121C50.4655 12.0121 50.4655 12.0121 50.5368 12.0121L50.4656 12.0674C50.3943 12.0674 50.323 12.0121 50.2517 12.0121C50.323 12.0121 50.323 12.0121 50.3943 12.0121Z" fill="#BA9CFF"/>
<path d="M72.1316 9.63278C72.2029 9.57745 72.3454 9.52212 72.4167 9.52212C72.488 9.52212 72.5592 9.57745 72.6305 9.63278C72.5592 9.68811 72.488 9.74345 72.3454 9.74345C72.2742 9.74345 72.2029 9.68811 72.1316 9.63278Z" fill="#BA9CFF"/>
<path d="M27.2315 14.6127C27.3028 14.6127 27.3028 14.668 27.3741 14.668C27.3028 14.668 27.1603 14.7233 27.089 14.7233C27.089 14.7233 27.0177 14.668 26.9465 14.668C27.089 14.6127 27.1603 14.6127 27.2315 14.6127Z" fill="#BA9CFF"/>
<path d="M53.1738 11.6801C53.2451 11.6801 53.2451 11.6801 53.3163 11.6801C53.2451 11.6801 53.1738 11.7354 53.1025 11.7354L53.0313 11.6801C53.1025 11.7354 53.1738 11.7354 53.1738 11.6801Z" fill="#BA9CFF"/>
<path d="M2.4296 13.0634L2.50087 13.1187H2.35833L2.4296 13.0634Z" fill="#BA9CFF"/>
<path d="M60.1583 11.8461C60.2295 11.8461 60.3008 11.9014 60.3008 11.9014C60.3008 11.9014 60.3008 12.0121 60.2295 12.0121C60.087 12.0674 60.0157 12.0121 60.0157 11.9014C60.0157 11.9014 60.087 11.9014 60.1583 11.8461Z" fill="#BA9CFF"/>
<path d="M48.1136 12.2887L48.0424 12.3441V12.2334L48.1136 12.2887Z" fill="#BA9CFF"/>
<path d="M22.3852 14.9447H22.4565V15L22.3852 14.9447Z" fill="#BA9CFF"/>
<path d="M56.1671 12.5101L56.0246 12.5654H56.1671V12.5101Z" fill="#BA9CFF"/>
<path d="M56.1671 12.5654V12.4547C56.1671 12.4547 56.1671 12.5101 56.1671 12.5654Z" fill="#BA9CFF"/>
<path d="M67.9267 11.0161L67.998 11.0714H67.9267V11.0161Z" fill="#BA9CFF"/>
</svg>
